<?xml version="1.0" encoding="UTF-8"?><svg xmlns="http://www.w3.org/2000/svg" xmlns:xlink="http://www.w3.org/1999/xlink" viewBox="0 0 323.02 61.6"><defs><style>.cls-1{fill:url(#linear-gradient);}.cls-1,.cls-2,.cls-3,.cls-4{stroke-width:0px;}.cls-2{fill:#000;}.cls-3{fill:#231f20;}.cls-4{fill:#65aac1;}</style><linearGradient id="linear-gradient" x1="92.04" y1="38.34" x2="80.57" y2="21.53" gradientUnits="userSpaceOnUse"><stop offset=".06" stop-color="#000"/><stop offset="1" stop-color="#58595b"/></linearGradient></defs><g id="Layer_1"><path class="cls-3" d="M142.44,26.58c2.17,0,3.95-.48,3.95-4.58v-8.52c0-4.09-1.64-4.62-3.95-4.62h-12.38v17.72h12.38ZM121.49,33.22V2.11c0-.92.53-1.44,1.44-1.44h20.56c7.66,0,11.37,4.53,11.37,12.76v8.67c0,8.19-3.71,12.57-11.37,12.57h-20.56c-.92,0-1.44-.53-1.44-1.44"/><path class="cls-3" d="M160.3,33.22V2.11c0-.92.53-1.44,1.44-1.44h5.63c.91,0,1.44.53,1.44,1.44v31.11c0,.91-.53,1.44-1.44,1.44h-5.63c-.92,0-1.44-.53-1.44-1.44"/><path class="cls-3" d="M173.88,22.97v-10.55c0-6.93,3.71-11.75,11.41-11.75h11.22c7.13,0,10.84,3.9,11.36,9.97.05.96-.53,1.49-1.44,1.49h-5.68c-.92,0-1.35-.48-1.49-1.45-.34-1.59-1.25-1.83-2.74-1.83h-11.22c-1.83,0-2.84.34-2.84,3.27v11.12c0,2.89,1.16,3.23,2.84,3.23h11.22c1.69,0,2.84-.34,2.84-3.23v-1.11h-6.16c-.92,0-1.45-.53-1.45-1.45v-4.48c0-.92.53-1.45,1.45-1.45h13.29c.92,0,1.44.53,1.44,1.45v6.74c0,6.89-3.71,11.7-11.41,11.7h-11.22c-7.71,0-11.41-4.82-11.41-11.7"/><path class="cls-3" d="M213.37,33.22V2.11c0-.92.53-1.44,1.44-1.44h5.63c.91,0,1.44.53,1.44,1.44v31.11c0,.91-.53,1.44-1.44,1.44h-5.63c-.92,0-1.44-.53-1.44-1.44"/><path class="cls-3" d="M236.39,33.22V8.9h-9.2c-.91,0-1.44-.53-1.44-1.44V2.11c0-.92.53-1.44,1.44-1.44h27.02c.92,0,1.44.53,1.44,1.44v5.35c0,.91-.53,1.44-1.44,1.44h-9.2v24.32c0,.91-.53,1.44-1.44,1.44h-5.73c-.91,0-1.44-.53-1.44-1.44"/><path class="cls-3" d="M277.8,22.44l-5.39-13-5.39,13h10.79ZM282.38,33.56l-1.73-4.19h-16.52l-1.73,4.19c-.29.72-.87,1.11-1.69,1.11h-6.45c-1.11,0-1.54-.67-1.11-1.69l14.21-31.21c.34-.77.87-1.11,1.69-1.11h6.69c.82,0,1.35.34,1.69,1.11l14.21,31.21c.43,1.01,0,1.69-1.11,1.69h-6.45c-.82,0-1.4-.39-1.69-1.11"/><path class="cls-3" d="M295.43,33.22V2.11c0-.92.53-1.44,1.44-1.44h5.68c.92,0,1.44.53,1.44,1.44v24.37h17.58c.92,0,1.44.53,1.44,1.45v5.3c0,.91-.53,1.44-1.44,1.44h-24.71c-.92,0-1.44-.53-1.44-1.44"/><path class="cls-3" d="M131.88,42.2l4.32,12.15h-8.63l4.32-12.15ZM130.59,39.95l-7.98,21.65h2.38l1.87-5.26h10.05l1.87,5.26h2.38l-7.98-21.65h-2.59Z"/><polygon class="cls-3" points="153.82 39.95 153.82 41.95 160.38 41.95 160.38 61.6 162.52 61.6 162.52 41.95 169.09 41.95 169.09 39.95 153.82 39.95"/><polygon class="cls-3" points="198.21 39.95 198.21 49.87 187.17 49.87 187.17 39.95 185.03 39.95 185.03 61.6 187.17 61.6 187.17 51.94 198.21 51.94 198.21 61.6 200.36 61.6 200.36 39.95 198.21 39.95"/><polygon class="cls-3" points="218.68 39.95 218.68 61.6 220.82 61.6 232.58 61.6 232.58 59.6 220.82 59.6 220.82 39.95 218.68 39.95"/><polygon class="cls-3" points="250.58 39.95 249.11 39.95 249.11 61.6 251.25 61.6 263.01 61.6 263.01 59.6 251.25 59.6 251.25 51.85 261.38 51.85 261.38 49.85 251.25 49.85 251.25 41.95 263.01 41.95 263.01 39.95 250.58 39.95"/><polygon class="cls-3" points="277.91 39.95 277.91 41.95 284.47 41.95 284.47 61.6 286.62 61.6 286.62 41.95 293.18 41.95 293.18 39.95 277.91 39.95"/><polygon class="cls-3" points="310.59 39.95 309.12 39.95 309.12 61.6 311.26 61.6 323.02 61.6 323.02 59.6 311.26 59.6 311.26 51.85 321.38 51.85 321.38 49.85 311.26 49.85 311.26 41.95 323.02 41.95 323.02 39.95 310.59 39.95"/></g><g id="Layer_2"><path class="cls-1" d="M114.74,61.03c-.07.14-.21.23-.39.23h-19.24l-.14-.23-12.23-21.2-4.28-7.42c-.73-1.28-2.44-1.44-3.42-.48l11.59-20.08,2.91,5.03.09.16,25.12,43.54c.09.14.09.32,0,.45Z"/><path class="cls-2" d="M86.62,11.86l-11.59,20.08c-.14.14-.27.3-.37.48l-8.67,15.01-5.24,9.08c-1.62,2.8-4.62,4.53-7.85,4.53H.3c-.18-.05-.3-.23-.3-.43,0-.07.02-.16.07-.23l9.47-16.4h33.89c2.8,0,5.37-1.48,6.78-3.9l10.89-18.86c1.05-1.84-.27-4.14-2.39-4.14H25.18l8.26-14.3c1.02-1.77,2.64-2.5,4.51-2.76h38.6c1.87,0,3.76.93,4.83,2.78l3,5.19,1.96,3.41.29.48Z"/><circle class="cls-4" cx="97.78" cy="5.68" r="5.68"/></g></svg>