<?xml version="1.0" encoding="UTF-8"?><svg xmlns="http://www.w3.org/2000/svg" xmlns:xlink="http://www.w3.org/1999/xlink" viewBox="0 0 323.86 62.05"><defs><style>.cls-1{fill:url(#linear-gradient);}.cls-1,.cls-2{stroke-width:0px;}.cls-2{fill:#65aac1;}</style><linearGradient id="linear-gradient" x1="95.47" y1="42.67" x2="82.65" y2="23.87" gradientUnits="userSpaceOnUse"><stop offset=".01" stop-color="#65aac1"/><stop offset=".23" stop-color="#5fa2b8"/><stop offset=".58" stop-color="#518ca0"/><stop offset="1" stop-color="#3c6c7c"/></linearGradient></defs><g id="Layer_1"><path class="cls-2" d="M143.27,27.03c2.17,0,3.95-.48,3.95-4.58v-8.52c0-4.09-1.64-4.62-3.95-4.62h-12.38v17.72h12.38ZM122.33,33.68V2.57c0-.92.53-1.44,1.44-1.44h20.56c7.66,0,11.37,4.53,11.37,12.76v8.67c0,8.19-3.71,12.57-11.37,12.57h-20.56c-.92,0-1.44-.53-1.44-1.44"/><path class="cls-2" d="M161.14,33.68V2.57c0-.92.53-1.44,1.44-1.44h5.63c.91,0,1.44.53,1.44,1.44v31.11c0,.91-.53,1.44-1.44,1.44h-5.63c-.92,0-1.44-.53-1.44-1.44"/><path class="cls-2" d="M174.72,23.42v-10.55c0-6.93,3.71-11.75,11.41-11.75h11.22c7.13,0,10.84,3.9,11.36,9.97.05.96-.53,1.49-1.44,1.49h-5.68c-.92,0-1.35-.48-1.49-1.45-.34-1.59-1.25-1.83-2.74-1.83h-11.22c-1.83,0-2.84.34-2.84,3.27v11.12c0,2.89,1.16,3.23,2.84,3.23h11.22c1.69,0,2.84-.34,2.84-3.23v-1.11h-6.16c-.92,0-1.45-.53-1.45-1.45v-4.48c0-.92.53-1.45,1.45-1.45h13.29c.92,0,1.44.53,1.44,1.45v6.74c0,6.89-3.71,11.7-11.41,11.7h-11.22c-7.71,0-11.41-4.82-11.41-11.7"/><path class="cls-2" d="M214.2,33.68V2.57c0-.92.53-1.44,1.44-1.44h5.63c.91,0,1.44.53,1.44,1.44v31.11c0,.91-.53,1.44-1.44,1.44h-5.63c-.92,0-1.44-.53-1.44-1.44"/><path class="cls-2" d="M237.22,33.68V9.36h-9.2c-.91,0-1.44-.53-1.44-1.44V2.57c0-.92.53-1.44,1.44-1.44h27.02c.92,0,1.44.53,1.44,1.44v5.35c0,.91-.53,1.44-1.44,1.44h-9.2v24.32c0,.91-.53,1.44-1.44,1.44h-5.73c-.91,0-1.44-.53-1.44-1.44"/><path class="cls-2" d="M278.64,22.89l-5.39-13-5.39,13h10.79ZM283.21,34.01l-1.73-4.19h-16.52l-1.73,4.19c-.29.72-.87,1.11-1.69,1.11h-6.45c-1.11,0-1.54-.67-1.11-1.69l14.21-31.21c.34-.77.87-1.11,1.69-1.11h6.69c.82,0,1.35.34,1.69,1.11l14.21,31.21c.43,1.01,0,1.69-1.11,1.69h-6.45c-.82,0-1.4-.39-1.69-1.11"/><path class="cls-2" d="M296.26,33.68V2.57c0-.92.53-1.44,1.44-1.44h5.68c.92,0,1.44.53,1.44,1.44v24.37h17.58c.92,0,1.44.53,1.44,1.45v5.3c0,.91-.53,1.44-1.44,1.44h-24.71c-.92,0-1.44-.53-1.44-1.44"/><path class="cls-2" d="M132.72,42.66l4.32,12.15h-8.63l4.32-12.15ZM131.42,40.41l-7.98,21.65h2.38l1.87-5.26h10.05l1.87,5.26h2.38l-7.98-21.65h-2.59Z"/><polygon class="cls-2" points="154.65 40.41 154.65 42.4 161.22 42.4 161.22 62.05 163.36 62.05 163.36 42.4 169.92 42.4 169.92 40.41 154.65 40.41"/><polygon class="cls-2" points="199.05 40.41 199.05 50.32 188 50.32 188 40.41 185.86 40.41 185.86 62.05 188 62.05 188 52.39 199.05 52.39 199.05 62.05 201.19 62.05 201.19 40.41 199.05 40.41"/><polygon class="cls-2" points="219.51 40.41 219.51 62.05 221.65 62.05 233.41 62.05 233.41 60.06 221.65 60.06 221.65 40.41 219.51 40.41"/><polygon class="cls-2" points="251.42 40.41 249.94 40.41 249.94 62.05 252.09 62.05 263.85 62.05 263.85 60.06 252.09 60.06 252.09 52.3 262.21 52.3 262.21 50.31 252.09 50.31 252.09 42.4 263.85 42.4 263.85 40.41 251.42 40.41"/><polygon class="cls-2" points="278.74 40.41 278.74 42.4 285.31 42.4 285.31 62.05 287.45 62.05 287.45 42.4 294.02 42.4 294.02 40.41 278.74 40.41"/><polygon class="cls-2" points="311.42 40.41 309.95 40.41 309.95 62.05 312.09 62.05 323.85 62.05 323.85 60.06 312.09 60.06 312.09 52.3 322.22 52.3 322.22 50.31 312.09 50.31 312.09 42.4 323.85 42.4 323.85 40.41 311.42 40.41"/></g><g id="Layer_2"><path class="cls-1" d="M115.57,61.48c-.07.14-.22.23-.4.23h-19.38l-.14-.23-12.32-21.35-4.31-7.47c-.74-1.29-2.46-1.45-3.45-.48l11.67-20.22,2.93,5.06.09.16,25.3,43.86c.09.14.09.32,0,.45Z"/><path class="cls-2" d="M87.25,11.94l-11.67,20.22c-.14.14-.27.31-.38.48l-8.73,15.12-5.28,9.14c-1.63,2.82-4.65,4.56-7.9,4.56H.31c-.18-.05-.31-.23-.31-.43,0-.07.02-.16.07-.23l9.54-16.52h34.14c2.82,0,5.41-1.49,6.82-3.93l10.97-19c1.06-1.85-.27-4.17-2.41-4.17H25.36l8.32-14.4c1.02-1.78,2.66-2.51,4.54-2.78h38.88c1.89,0,3.79.93,4.87,2.8l3.02,5.23,1.98,3.43.29.48Z"/><circle class="cls-2" cx="98.49" cy="5.72" r="5.72"/></g></svg>