<?xml version="1.0" encoding="UTF-8"?><svg id="Layer_1" xmlns="http://www.w3.org/2000/svg" viewBox="0 0 259.09 78.33"><defs><style>.cls-1{fill:#fff;stroke-width:0px;}</style></defs><path class="cls-1" d="M0,41.85V1.86C0,.68.68,0,1.86,0h26.44c9.84,0,14.61,5.82,14.61,16.41v11.14c0,10.53-4.77,16.16-14.61,16.16H1.86c-1.18,0-1.86-.68-1.86-1.86ZM26.93,33.31c2.79,0,5.08-.62,5.08-5.88v-10.96c0-5.26-2.1-5.94-5.08-5.94h-15.91v22.78h15.91Z"/><path class="cls-1" d="M49.9,41.85V1.86c0-1.18.68-1.86,1.86-1.86h7.24c1.18,0,1.86.68,1.86,1.86v40c0,1.18-.68,1.86-1.86,1.86h-7.24c-1.18,0-1.86-.68-1.86-1.86Z"/><path class="cls-1" d="M67.36,28.67v-13.56c0-8.92,4.77-15.11,14.67-15.11h14.43c9.16,0,13.93,5.02,14.61,12.82.06,1.24-.68,1.92-1.86,1.92h-7.31c-1.18,0-1.73-.62-1.92-1.86-.43-2.04-1.61-2.35-3.53-2.35h-14.43c-2.35,0-3.65.43-3.65,4.21v14.3c0,3.71,1.49,4.15,3.65,4.15h14.43c2.17,0,3.65-.43,3.65-4.15v-1.42h-7.92c-1.18,0-1.86-.68-1.86-1.86v-5.76c0-1.18.68-1.86,1.86-1.86h17.09c1.18,0,1.86.68,1.86,1.86v8.67c0,8.85-4.77,15.04-14.67,15.04h-14.43c-9.91,0-14.67-6.19-14.67-15.04Z"/><path class="cls-1" d="M118.12,41.85V1.86c0-1.18.68-1.86,1.86-1.86h7.24c1.18,0,1.86.68,1.86,1.86v40c0,1.18-.68,1.86-1.86,1.86h-7.24c-1.18,0-1.86-.68-1.86-1.86Z"/><path class="cls-1" d="M147.71,41.85V10.59h-11.83c-1.18,0-1.86-.68-1.86-1.86V1.86c0-1.18.68-1.86,1.86-1.86h34.73c1.18,0,1.86.68,1.86,1.86v6.87c0,1.18-.68,1.86-1.86,1.86h-11.83v31.27c0,1.18-.68,1.86-1.86,1.86h-7.37c-1.18,0-1.86-.68-1.86-1.86Z"/><path class="cls-1" d="M206.84,42.29l-2.23-5.39h-21.24l-2.23,5.39c-.37.93-1.11,1.42-2.17,1.42h-8.3c-1.42,0-1.98-.87-1.42-2.17L187.52,1.42c.43-.99,1.11-1.42,2.17-1.42h8.61c1.05,0,1.73.43,2.17,1.42l18.26,40.12c.56,1.3,0,2.17-1.42,2.17h-8.3c-1.05,0-1.8-.5-2.17-1.42ZM200.96,27.98l-6.93-16.72-6.93,16.72h13.87Z"/><path class="cls-1" d="M223.61,41.85V1.86c0-1.18.68-1.86,1.86-1.86h7.31c1.18,0,1.86.68,1.86,1.86v31.33h22.6c1.18,0,1.86.68,1.86,1.86v6.81c0,1.18-.68,1.86-1.86,1.86h-31.76c-1.18,0-1.86-.68-1.86-1.86Z"/><path class="cls-1" d="M1.43,78.33l10.26-27.83h3.33l10.26,27.83h-3.06l-8.86-24.94-8.86,24.94H1.43ZM6.16,71.58v-2.56h14.64v2.56H6.16Z"/><path class="cls-1" d="M41.56,53.07v-2.56h19.64v2.56h-19.64ZM50,78.33v-26.7h2.76v26.7h-2.76Z"/><path class="cls-1" d="M81.68,78.33v-27.83h2.76v27.83h-2.76ZM83.54,65.91v-2.66h16.59v2.66h-16.59ZM98.64,78.33v-27.83h2.76v27.83h-2.76Z"/><path class="cls-1" d="M124.94,78.33v-27.83h2.76v27.83h-2.76ZM126.89,78.33v-2.56h15.92v2.56h-15.92Z"/><path class="cls-1" d="M164.07,78.33v-27.83h2.76v27.83h-2.76ZM165.96,53.07v-2.56h15.98v2.56h-15.98ZM165.96,65.8v-2.56h13.88v2.56h-13.88ZM165.96,78.33v-2.56h15.98v2.56h-15.98Z"/><path class="cls-1" d="M201.09,53.07v-2.56h19.64v2.56h-19.64ZM209.53,78.33v-26.7h2.76v26.7h-2.76Z"/><path class="cls-1" d="M241.21,78.33v-27.83h2.76v27.83h-2.76ZM243.11,53.07v-2.56h15.98v2.56h-15.98ZM243.11,65.8v-2.56h13.88v2.56h-13.88ZM243.11,78.33v-2.56h15.98v2.56h-15.98Z"/></svg>