<?xml version="1.0" encoding="UTF-8"?><svg id="Layer_1" xmlns="http://www.w3.org/2000/svg" xmlns:xlink="http://www.w3.org/1999/xlink" viewBox="0 0 323.02 86.14"><defs><style>.cls-1{fill:url(#linear-gradient);}.cls-1,.cls-2,.cls-3,.cls-4{stroke-width:0px;}.cls-5{clip-path:url(#clippath-2);}.cls-2{fill:#66a9c1;}.cls-3{fill:none;}.cls-6{clip-path:url(#clippath-1);}.cls-7{clip-path:url(#clippath);}.cls-4{fill:#fff;}</style><clipPath id="clippath"><rect class="cls-3" x="0" y="6.49" width="323.02" height="61.49"/></clipPath><clipPath id="clippath-1"><path class="cls-3" d="M75.31,38.54c.98-.97,2.7-.81,3.44.48l4.3,7.45,12.28,21.28h0s19.48.01,19.48.01v-1.08l-24.86-43.08-.09-.16-2.92-5.05-11.63,20.15Z"/></clipPath><linearGradient id="linear-gradient" x1="-14.8" y1="220.31" x2="-14.12" y2="220.31" gradientTransform="translate(7384.42 -441.99) rotate(-90) scale(33.09 -33.09)" gradientUnits="userSpaceOnUse"><stop offset="0" stop-color="#e6e7e8"/><stop offset=".01" stop-color="#e6e7e8"/><stop offset=".16" stop-color="#dddedf"/><stop offset=".39" stop-color="#c5c6c8"/><stop offset=".68" stop-color="#9e9fa2"/><stop offset="1" stop-color="#6d6e71"/></linearGradient><clipPath id="clippath-2"><rect class="cls-3" x="0" y="6.49" width="323.02" height="61.49"/></clipPath></defs><g class="cls-7"><path class="cls-4" d="M142.44,32.95c2.17,0,3.95-.48,3.95-4.58v-8.52c0-4.09-1.64-4.62-3.95-4.62h-12.38v17.72h12.38ZM121.49,39.6V8.49c0-.92.53-1.44,1.44-1.44h20.56c7.66,0,11.37,4.53,11.37,12.76v8.67c0,8.19-3.71,12.57-11.37,12.57h-20.56c-.92,0-1.44-.53-1.44-1.44"/><path class="cls-4" d="M160.3,39.6V8.49c0-.92.53-1.44,1.44-1.44h5.63c.91,0,1.44.53,1.44,1.44v31.11c0,.91-.53,1.44-1.44,1.44h-5.63c-.92,0-1.44-.53-1.44-1.44"/><path class="cls-4" d="M173.88,29.34v-10.55c0-6.93,3.71-11.75,11.41-11.75h11.22c7.13,0,10.84,3.9,11.36,9.97.05.96-.53,1.49-1.44,1.49h-5.68c-.92,0-1.35-.48-1.49-1.45-.34-1.59-1.25-1.83-2.74-1.83h-11.22c-1.83,0-2.84.34-2.84,3.27v11.12c0,2.89,1.16,3.23,2.84,3.23h11.22c1.69,0,2.84-.34,2.84-3.23v-1.11h-6.16c-.92,0-1.45-.53-1.45-1.45v-4.48c0-.92.53-1.45,1.45-1.45h13.29c.92,0,1.44.53,1.44,1.45v6.74c0,6.89-3.71,11.7-11.41,11.7h-11.22c-7.71,0-11.41-4.82-11.41-11.7"/><path class="cls-4" d="M213.37,39.6V8.49c0-.92.53-1.44,1.44-1.44h5.63c.91,0,1.44.53,1.44,1.44v31.11c0,.91-.53,1.44-1.44,1.44h-5.63c-.92,0-1.44-.53-1.44-1.44"/><path class="cls-4" d="M236.39,39.6V15.28h-9.2c-.91,0-1.44-.53-1.44-1.44v-5.35c0-.92.53-1.44,1.44-1.44h27.02c.92,0,1.44.53,1.44,1.44v5.35c0,.91-.53,1.44-1.44,1.44h-9.2v24.32c0,.91-.53,1.44-1.44,1.44h-5.73c-.91,0-1.44-.53-1.44-1.44"/><path class="cls-4" d="M277.8,28.81l-5.39-13-5.39,13h10.79ZM282.38,39.94l-1.73-4.19h-16.52l-1.73,4.19c-.29.72-.87,1.11-1.69,1.11h-6.45c-1.11,0-1.54-.67-1.11-1.69l14.21-31.21c.34-.77.87-1.11,1.69-1.11h6.69c.82,0,1.35.34,1.69,1.11l14.21,31.21c.43,1.01,0,1.69-1.11,1.69h-6.45c-.82,0-1.4-.39-1.69-1.11"/><path class="cls-4" d="M295.43,39.6V8.49c0-.92.53-1.44,1.44-1.44h5.68c.92,0,1.44.53,1.44,1.44v24.37h17.58c.92,0,1.44.53,1.44,1.45v5.3c0,.91-.53,1.44-1.44,1.44h-24.71c-.92,0-1.44-.53-1.44-1.44"/></g><path class="cls-4" d="M131.88,48.58l4.32,12.15h-8.63l4.32-12.15ZM130.59,46.33l-7.98,21.65h2.38l1.87-5.26h10.05l1.87,5.26h2.38l-7.98-21.65h-2.59Z"/><polygon class="cls-4" points="153.82 46.33 153.82 48.33 160.38 48.33 160.38 67.98 162.52 67.98 162.52 48.33 169.09 48.33 169.09 46.33 153.82 46.33"/><polygon class="cls-4" points="198.21 46.33 198.21 56.25 187.17 56.25 187.17 46.33 185.03 46.33 185.03 67.98 187.17 67.98 187.17 58.32 198.21 58.32 198.21 67.98 200.36 67.98 200.36 46.33 198.21 46.33"/><polygon class="cls-4" points="218.68 46.33 218.68 67.98 220.82 67.98 232.58 67.98 232.58 65.98 220.82 65.98 220.82 46.33 218.68 46.33"/><polygon class="cls-4" points="250.58 46.33 249.11 46.33 249.11 67.98 251.25 67.98 263.01 67.98 263.01 65.98 251.25 65.98 251.25 58.23 261.38 58.23 261.38 56.23 251.25 56.23 251.25 48.33 263.01 48.33 263.01 46.33 250.58 46.33"/><polygon class="cls-4" points="277.91 46.33 277.91 48.33 284.47 48.33 284.47 67.98 286.62 67.98 286.62 48.33 293.18 48.33 293.18 46.33 277.91 46.33"/><polygon class="cls-4" points="310.59 46.33 309.12 46.33 309.12 67.98 311.26 67.98 323.02 67.98 323.02 65.98 311.26 65.98 311.26 58.23 321.38 58.23 321.38 56.23 311.26 56.23 311.26 48.33 323.02 48.33 323.02 46.33 310.59 46.33"/><g class="cls-6"><rect class="cls-1" x="64.83" y="11.55" width="60.45" height="63.04" transform="translate(-7.74 61.06) rotate(-34.3)"/></g><g class="cls-5"><path class="cls-4" d="M86.94,18.39l-11.63,20.15c-.14.14-.27.3-.38.48l-8.7,15.07-5.26,9.11c-1.63,2.81-4.64,4.55-7.87,4.55H.3c-.18-.05-.3-.23-.3-.43,0-.07.02-.16.07-.23l9.5-16.46h34.02c2.81,0,5.39-1.49,6.8-3.92l10.93-18.93c1.06-1.84-.27-4.15-2.4-4.15H25.27l8.29-14.35c1.02-1.77,2.65-2.51,4.53-2.77h38.74c1.88,0,3.78.93,4.85,2.79l3.01,5.21,1.97,3.42.29.48Z"/><path class="cls-2" d="M103.83,12.19c0,3.15-2.55,5.7-5.7,5.7s-5.7-2.55-5.7-5.7,2.55-5.7,5.7-5.7,5.7,2.55,5.7,5.7"/></g></svg>